<svg xmlns="http://www.w3.org/2000/svg" viewBox="0 0 1500 500" width="1500" height="500"><defs>
    <radialGradient id="bg" cx="72%" cy="18%" r="75%">
      <stop offset="0" stop-color="#241d57"></stop>
      <stop offset="55%" stop-color="#100d22"></stop>
      <stop offset="100%" stop-color="#08070d"></stop>
    </radialGradient>
    <radialGradient id="cyanglow" cx="50%" cy="50%" r="50%">
      <stop offset="0" stop-color="#00e6ff" stop-opacity="0.35"></stop>
      <stop offset="100%" stop-color="#00e6ff" stop-opacity="0"></stop>
    </radialGradient>
    <radialGradient id="magglow" cx="50%" cy="50%" r="50%">
      <stop offset="0" stop-color="#ff45e0" stop-opacity="0.30"></stop>
      <stop offset="100%" stop-color="#ff45e0" stop-opacity="0"></stop>
    </radialGradient>
  </defs>
  <rect width="1500" height="500" fill="url(#bg)"></rect><line x1="50" y1="0" x2="50" y2="500" stroke="#ffffff" stroke-opacity="0.035" stroke-width="1"></line><line x1="100" y1="0" x2="100" y2="500" stroke="#ffffff" stroke-opacity="0.035" stroke-width="1"></line><line x1="150" y1="0" x2="150" y2="500" stroke="#ffffff" stroke-opacity="0.035" stroke-width="1"></line><line x1="200" y1="0" x2="200" y2="500" stroke="#ffffff" stroke-opacity="0.035" stroke-width="1"></line><line x1="250" y1="0" x2="250" y2="500" stroke="#ffffff" stroke-opacity="0.035" stroke-width="1"></line><line x1="300" y1="0" x2="300" y2="500" stroke="#ffffff" stroke-opacity="0.035" stroke-width="1"></line><line x1="350" y1="0" x2="350" y2="500" stroke="#ffffff" stroke-opacity="0.035" stroke-width="1"></line><line x1="400" y1="0" x2="400" y2="500" stroke="#ffffff" stroke-opacity="0.035" stroke-width="1"></line><line x1="450" y1="0" x2="450" y2="500" stroke="#ffffff" stroke-opacity="0.035" stroke-width="1"></line><line x1="500" y1="0" x2="500" y2="500" stroke="#ffffff" stroke-opacity="0.035" stroke-width="1"></line><line x1="550" y1="0" x2="550" y2="500" stroke="#ffffff" stroke-opacity="0.035" stroke-width="1"></line><line x1="600" y1="0" x2="600" y2="500" stroke="#ffffff" stroke-opacity="0.035" stroke-width="1"></line><line x1="650" y1="0" x2="650" y2="500" stroke="#ffffff" stroke-opacity="0.035" stroke-width="1"></line><line x1="700" y1="0" x2="700" y2="500" stroke="#ffffff" stroke-opacity="0.035" stroke-width="1"></line><line x1="750" y1="0" x2="750" y2="500" stroke="#ffffff" stroke-opacity="0.035" stroke-width="1"></line><line x1="800" y1="0" x2="800" y2="500" stroke="#ffffff" stroke-opacity="0.035" stroke-width="1"></line><line x1="850" y1="0" x2="850" y2="500" stroke="#ffffff" stroke-opacity="0.035" stroke-width="1"></line><line x1="900" y1="0" x2="900" y2="500" stroke="#ffffff" stroke-opacity="0.035" stroke-width="1"></line><line x1="950" y1="0" x2="950" y2="500" stroke="#ffffff" stroke-opacity="0.035" stroke-width="1"></line><line x1="1000" y1="0" x2="1000" y2="500" stroke="#ffffff" stroke-opacity="0.035" stroke-width="1"></line><line x1="1050" y1="0" x2="1050" y2="500" stroke="#ffffff" stroke-opacity="0.035" stroke-width="1"></line><line x1="1100" y1="0" x2="1100" y2="500" stroke="#ffffff" stroke-opacity="0.035" stroke-width="1"></line><line x1="1150" y1="0" x2="1150" y2="500" stroke="#ffffff" stroke-opacity="0.035" stroke-width="1"></line><line x1="1200" y1="0" x2="1200" y2="500" stroke="#ffffff" stroke-opacity="0.035" stroke-width="1"></line><line x1="1250" y1="0" x2="1250" y2="500" stroke="#ffffff" stroke-opacity="0.035" stroke-width="1"></line><line x1="1300" y1="0" x2="1300" y2="500" stroke="#ffffff" stroke-opacity="0.035" stroke-width="1"></line><line x1="1350" y1="0" x2="1350" y2="500" stroke="#ffffff" stroke-opacity="0.035" stroke-width="1"></line><line x1="1400" y1="0" x2="1400" y2="500" stroke="#ffffff" stroke-opacity="0.035" stroke-width="1"></line><line x1="1450" y1="0" x2="1450" y2="500" stroke="#ffffff" stroke-opacity="0.035" stroke-width="1"></line><line x1="0" y1="50" x2="1500" y2="50" stroke="#ffffff" stroke-opacity="0.035" stroke-width="1"></line><line x1="0" y1="100" x2="1500" y2="100" stroke="#ffffff" stroke-opacity="0.035" stroke-width="1"></line><line x1="0" y1="150" x2="1500" y2="150" stroke="#ffffff" stroke-opacity="0.035" stroke-width="1"></line><line x1="0" y1="200" x2="1500" y2="200" stroke="#ffffff" stroke-opacity="0.035" stroke-width="1"></line><line x1="0" y1="250" x2="1500" y2="250" stroke="#ffffff" stroke-opacity="0.035" stroke-width="1"></line><line x1="0" y1="300" x2="1500" y2="300" stroke="#ffffff" stroke-opacity="0.035" stroke-width="1"></line><line x1="0" y1="350" x2="1500" y2="350" stroke="#ffffff" stroke-opacity="0.035" stroke-width="1"></line><line x1="0" y1="400" x2="1500" y2="400" stroke="#ffffff" stroke-opacity="0.035" stroke-width="1"></line><line x1="0" y1="450" x2="1500" y2="450" stroke="#ffffff" stroke-opacity="0.035" stroke-width="1"></line><ellipse cx="1230" cy="350" rx="450" ry="350" fill="url(#cyanglow)"></ellipse><ellipse cx="1440" cy="100" rx="330" ry="300" fill="url(#magglow)"></ellipse><rect x="1134" y="0" width="17" height="17" fill="#00e6ff" opacity="0.53"></rect><rect x="1188" y="0" width="17" height="17" fill="#bdf7ff" opacity="0.59"></rect><rect x="1206" y="0" width="17" height="17" fill="#7b5bff" opacity="0.62"></rect><rect x="1242" y="0" width="17" height="17" fill="#3a2f7e" opacity="0.66"></rect><rect x="1296" y="0" width="17" height="17" fill="#7b5bff" opacity="0.73"></rect><rect x="1332" y="0" width="17" height="17" fill="#7b5bff" opacity="0.77"></rect><rect x="1350" y="0" width="17" height="17" fill="#3a2f7e" opacity="0.80"></rect><rect x="1368" y="0" width="17" height="17" fill="#00e6ff" opacity="0.82"></rect><rect x="1386" y="0" width="17" height="17" fill="#3a2f7e" opacity="0.85"></rect><rect x="1422" y="0" width="17" height="17" fill="#3a2f7e" opacity="0.90"></rect><rect x="1458" y="0" width="17" height="17" fill="#3a2f7e" opacity="0.95"></rect><rect x="1476" y="0" width="17" height="17" fill="#ff45e0" opacity="0.97"></rect><rect x="1494" y="0" width="17" height="17" fill="#7b5bff" opacity="1.00"></rect><rect x="792" y="18" width="17" height="17" fill="#00e6ff" opacity="0.26"></rect><rect x="1152" y="18" width="17" height="17" fill="#3a2f7e" opacity="0.55"></rect><rect x="1224" y="18" width="17" height="17" fill="#7b5bff" opacity="0.64"></rect><rect x="1260" y="18" width="17" height="17" fill="#3a2f7e" opacity="0.68"></rect><rect x="1278" y="18" width="17" height="17" fill="#3a2f7e" opacity="0.70"></rect><rect x="1314" y="18" width="17" height="17" fill="#7b5bff" opacity="0.75"></rect><rect x="1350" y="18" width="17" height="17" fill="#3a2f7e" opacity="0.80"></rect><rect x="1368" y="18" width="17" height="17" fill="#3a2f7e" opacity="0.82"></rect><rect x="1386" y="18" width="17" height="17" fill="#3a2f7e" opacity="0.85"></rect><rect x="1404" y="18" width="17" height="17" fill="#00e6ff" opacity="0.87"></rect><rect x="1440" y="18" width="17" height="17" fill="#3a2f7e" opacity="0.92"></rect><rect x="1458" y="18" width="17" height="17" fill="#7b5bff" opacity="0.95"></rect><rect x="1476" y="18" width="17" height="17" fill="#00e6ff" opacity="0.97"></rect><rect x="1494" y="18" width="17" height="17" fill="#7b5bff" opacity="1.00"></rect><rect x="954" y="36" width="17" height="17" fill="#ff45e0" opacity="0.36"></rect><rect x="1116" y="36" width="17" height="17" fill="#3a2f7e" opacity="0.52"></rect><rect x="1134" y="36" width="17" height="17" fill="#3a2f7e" opacity="0.53"></rect><rect x="1170" y="36" width="17" height="17" fill="#3a2f7e" opacity="0.57"></rect><rect x="1224" y="36" width="17" height="17" fill="#7b5bff" opacity="0.64"></rect><rect x="1260" y="36" width="17" height="17" fill="#7b5bff" opacity="0.68"></rect><rect x="1278" y="36" width="17" height="17" fill="#7b5bff" opacity="0.70"></rect><rect x="1296" y="36" width="17" height="17" fill="#7b5bff" opacity="0.73"></rect><rect x="1314" y="36" width="17" height="17" fill="#00e6ff" opacity="0.75"></rect><rect x="1350" y="36" width="17" height="17" fill="#3a2f7e" opacity="0.80"></rect><rect x="1386" y="36" width="17" height="17" fill="#7b5bff" opacity="0.85"></rect><rect x="1404" y="36" width="17" height="17" fill="#ff45e0" opacity="0.87"></rect><rect x="1422" y="36" width="17" height="17" fill="#7b5bff" opacity="0.90"></rect><rect x="1440" y="36" width="17" height="17" fill="#3a2f7e" opacity="0.92"></rect><rect x="1458" y="36" width="17" height="17" fill="#00e6ff" opacity="0.95"></rect><rect x="1476" y="36" width="17" height="17" fill="#3a2f7e" opacity="0.97"></rect><rect x="1494" y="36" width="17" height="17" fill="#7b5bff" opacity="1.00"></rect><rect x="1008" y="54" width="17" height="17" fill="#bdf7ff" opacity="0.41"></rect><rect x="1098" y="54" width="17" height="17" fill="#bdf7ff" opacity="0.50"></rect><rect x="1116" y="54" width="17" height="17" fill="#3a2f7e" opacity="0.52"></rect><rect x="1134" y="54" width="17" height="17" fill="#7b5bff" opacity="0.53"></rect><rect x="1152" y="54" width="17" height="17" fill="#00e6ff" opacity="0.55"></rect><rect x="1206" y="54" width="17" height="17" fill="#ff45e0" opacity="0.62"></rect><rect x="1242" y="54" width="17" height="17" fill="#7b5bff" opacity="0.66"></rect><rect x="1278" y="54" width="17" height="17" fill="#3a2f7e" opacity="0.70"></rect><rect x="1350" y="54" width="17" height="17" fill="#3a2f7e" opacity="0.80"></rect><rect x="1368" y="54" width="17" height="17" fill="#3a2f7e" opacity="0.82"></rect><rect x="1404" y="54" width="17" height="17" fill="#00e6ff" opacity="0.87"></rect><rect x="1422" y="54" width="17" height="17" fill="#00e6ff" opacity="0.90"></rect><rect x="1440" y="54" width="17" height="17" fill="#7b5bff" opacity="0.92"></rect><rect x="1458" y="54" width="17" height="17" fill="#3a2f7e" opacity="0.95"></rect><rect x="1476" y="54" width="17" height="17" fill="#7b5bff" opacity="0.97"></rect><rect x="1494" y="54" width="17" height="17" fill="#ff45e0" opacity="1.00"></rect><rect x="900" y="72" width="17" height="17" fill="#bdf7ff" opacity="0.32"></rect><rect x="1188" y="72" width="17" height="17" fill="#00e6ff" opacity="0.59"></rect><rect x="1260" y="72" width="17" height="17" fill="#ff45e0" opacity="0.68"></rect><rect x="1296" y="72" width="17" height="17" fill="#3a2f7e" opacity="0.73"></rect><rect x="1314" y="72" width="17" height="17" fill="#3a2f7e" opacity="0.75"></rect><rect x="1332" y="72" width="17" height="17" fill="#7b5bff" opacity="0.77"></rect><rect x="1350" y="72" width="17" height="17" fill="#00e6ff" opacity="0.80"></rect><rect x="1368" y="72" width="17" height="17" fill="#ff45e0" opacity="0.82"></rect><rect x="1404" y="72" width="17" height="17" fill="#3a2f7e" opacity="0.87"></rect><rect x="1422" y="72" width="17" height="17" fill="#ff45e0" opacity="0.90"></rect><rect x="1440" y="72" width="17" height="17" fill="#00e6ff" opacity="0.92"></rect><rect x="1458" y="72" width="17" height="17" fill="#3a2f7e" opacity="0.95"></rect><rect x="1476" y="72" width="17" height="17" fill="#00e6ff" opacity="0.97"></rect><rect x="1494" y="72" width="17" height="17" fill="#3a2f7e" opacity="1.00"></rect><rect x="1170" y="90" width="17" height="17" fill="#00e6ff" opacity="0.57"></rect><rect x="1224" y="90" width="17" height="17" fill="#00e6ff" opacity="0.64"></rect><rect x="1260" y="90" width="17" height="17" fill="#7b5bff" opacity="0.68"></rect><rect x="1278" y="90" width="17" height="17" fill="#3a2f7e" opacity="0.70"></rect><rect x="1296" y="90" width="17" height="17" fill="#3a2f7e" opacity="0.73"></rect><rect x="1314" y="90" width="17" height="17" fill="#bdf7ff" opacity="0.75"></rect><rect x="1332" y="90" width="17" height="17" fill="#3a2f7e" opacity="0.77"></rect><rect x="1368" y="90" width="17" height="17" fill="#3a2f7e" opacity="0.82"></rect><rect x="1386" y="90" width="17" height="17" fill="#00e6ff" opacity="0.85"></rect><rect x="1404" y="90" width="17" height="17" fill="#7b5bff" opacity="0.87"></rect><rect x="1422" y="90" width="17" height="17" fill="#7b5bff" opacity="0.90"></rect><rect x="1440" y="90" width="17" height="17" fill="#3a2f7e" opacity="0.92"></rect><rect x="1476" y="90" width="17" height="17" fill="#3a2f7e" opacity="0.97"></rect><rect x="1494" y="90" width="17" height="17" fill="#3a2f7e" opacity="1.00"></rect><rect x="1044" y="108" width="17" height="17" fill="#ff45e0" opacity="0.44"></rect><rect x="1116" y="108" width="17" height="17" fill="#bdf7ff" opacity="0.52"></rect><rect x="1152" y="108" width="17" height="17" fill="#7b5bff" opacity="0.55"></rect><rect x="1278" y="108" width="17" height="17" fill="#3a2f7e" opacity="0.70"></rect><rect x="1332" y="108" width="17" height="17" fill="#7b5bff" opacity="0.77"></rect><rect x="1350" y="108" width="17" height="17" fill="#3a2f7e" opacity="0.80"></rect><rect x="1368" y="108" width="17" height="17" fill="#ff45e0" opacity="0.82"></rect><rect x="1386" y="108" width="17" height="17" fill="#3a2f7e" opacity="0.85"></rect><rect x="1404" y="108" width="17" height="17" fill="#00e6ff" opacity="0.87"></rect><rect x="1422" y="108" width="17" height="17" fill="#3a2f7e" opacity="0.90"></rect><rect x="1440" y="108" width="17" height="17" fill="#ff45e0" opacity="0.92"></rect><rect x="1458" y="108" width="17" height="17" fill="#ff45e0" opacity="0.95"></rect><rect x="1476" y="108" width="17" height="17" fill="#3a2f7e" opacity="0.97"></rect><rect x="1494" y="108" width="17" height="17" fill="#7b5bff" opacity="1.00"></rect><rect x="1080" y="126" width="17" height="17" fill="#00e6ff" opacity="0.48"></rect><rect x="1098" y="126" width="17" height="17" fill="#3a2f7e" opacity="0.50"></rect><rect x="1134" y="126" width="17" height="17" fill="#3a2f7e" opacity="0.53"></rect><rect x="1152" y="126" width="17" height="17" fill="#3a2f7e" opacity="0.55"></rect><rect x="1206" y="126" width="17" height="17" fill="#7b5bff" opacity="0.62"></rect><rect x="1242" y="126" width="17" height="17" fill="#3a2f7e" opacity="0.66"></rect><rect x="1278" y="126" width="17" height="17" fill="#3a2f7e" opacity="0.70"></rect><rect x="1332" y="126" width="17" height="17" fill="#bdf7ff" opacity="0.77"></rect><rect x="1350" y="126" width="17" height="17" fill="#ff45e0" opacity="0.80"></rect><rect x="1386" y="126" width="17" height="17" fill="#7b5bff" opacity="0.85"></rect><rect x="1404" y="126" width="17" height="17" fill="#7b5bff" opacity="0.87"></rect><rect x="1458" y="126" width="17" height="17" fill="#00e6ff" opacity="0.95"></rect><rect x="1476" y="126" width="17" height="17" fill="#3a2f7e" opacity="0.97"></rect><rect x="1494" y="126" width="17" height="17" fill="#3a2f7e" opacity="1.00"></rect><rect x="1080" y="144" width="17" height="17" fill="#7b5bff" opacity="0.48"></rect><rect x="1134" y="144" width="17" height="17" fill="#00e6ff" opacity="0.53"></rect><rect x="1188" y="144" width="17" height="17" fill="#7b5bff" opacity="0.59"></rect><rect x="1260" y="144" width="17" height="17" fill="#3a2f7e" opacity="0.68"></rect><rect x="1296" y="144" width="17" height="17" fill="#7b5bff" opacity="0.73"></rect><rect x="1314" y="144" width="17" height="17" fill="#3a2f7e" opacity="0.75"></rect><rect x="1332" y="144" width="17" height="17" fill="#3a2f7e" opacity="0.77"></rect><rect x="1350" y="144" width="17" height="17" fill="#00e6ff" opacity="0.80"></rect><rect x="1368" y="144" width="17" height="17" fill="#3a2f7e" opacity="0.82"></rect><rect x="1386" y="144" width="17" height="17" fill="#3a2f7e" opacity="0.85"></rect><rect x="1404" y="144" width="17" height="17" fill="#3a2f7e" opacity="0.87"></rect><rect x="1440" y="144" width="17" height="17" fill="#3a2f7e" opacity="0.92"></rect><rect x="1458" y="144" width="17" height="17" fill="#7b5bff" opacity="0.95"></rect><rect x="1476" y="144" width="17" height="17" fill="#bdf7ff" opacity="0.97"></rect><rect x="1494" y="144" width="17" height="17" fill="#00e6ff" opacity="1.00"></rect><rect x="1008" y="162" width="17" height="17" fill="#3a2f7e" opacity="0.41"></rect><rect x="1026" y="162" width="17" height="17" fill="#7b5bff" opacity="0.43"></rect><rect x="1116" y="162" width="17" height="17" fill="#3a2f7e" opacity="0.52"></rect><rect x="1152" y="162" width="17" height="17" fill="#7b5bff" opacity="0.55"></rect><rect x="1242" y="162" width="17" height="17" fill="#7b5bff" opacity="0.66"></rect><rect x="1260" y="162" width="17" height="17" fill="#7b5bff" opacity="0.68"></rect><rect x="1332" y="162" width="17" height="17" fill="#3a2f7e" opacity="0.77"></rect><rect x="1386" y="162" width="17" height="17" fill="#7b5bff" opacity="0.85"></rect><rect x="1404" y="162" width="17" height="17" fill="#7b5bff" opacity="0.87"></rect><rect x="1422" y="162" width="17" height="17" fill="#ff45e0" opacity="0.90"></rect><rect x="1440" y="162" width="17" height="17" fill="#7b5bff" opacity="0.92"></rect><rect x="1458" y="162" width="17" height="17" fill="#ff45e0" opacity="0.95"></rect><rect x="1476" y="162" width="17" height="17" fill="#3a2f7e" opacity="0.97"></rect><rect x="1494" y="162" width="17" height="17" fill="#3a2f7e" opacity="1.00"></rect><rect x="1008" y="180" width="17" height="17" fill="#3a2f7e" opacity="0.41"></rect><rect x="1080" y="180" width="17" height="17" fill="#3a2f7e" opacity="0.48"></rect><rect x="1098" y="180" width="17" height="17" fill="#3a2f7e" opacity="0.50"></rect><rect x="1116" y="180" width="17" height="17" fill="#3a2f7e" opacity="0.52"></rect><rect x="1152" y="180" width="17" height="17" fill="#7b5bff" opacity="0.55"></rect><rect x="1242" y="180" width="17" height="17" fill="#00e6ff" opacity="0.66"></rect><rect x="1278" y="180" width="17" height="17" fill="#7b5bff" opacity="0.70"></rect><rect x="1296" y="180" width="17" height="17" fill="#7b5bff" opacity="0.73"></rect><rect x="1314" y="180" width="17" height="17" fill="#00e6ff" opacity="0.75"></rect><rect x="1332" y="180" width="17" height="17" fill="#bdf7ff" opacity="0.77"></rect><rect x="1350" y="180" width="17" height="17" fill="#3a2f7e" opacity="0.80"></rect><rect x="1404" y="180" width="17" height="17" fill="#3a2f7e" opacity="0.87"></rect><rect x="1422" y="180" width="17" height="17" fill="#3a2f7e" opacity="0.90"></rect><rect x="1440" y="180" width="17" height="17" fill="#ff45e0" opacity="0.92"></rect><rect x="1458" y="180" width="17" height="17" fill="#7b5bff" opacity="0.95"></rect><rect x="1476" y="180" width="17" height="17" fill="#00e6ff" opacity="0.97"></rect><rect x="1494" y="180" width="17" height="17" fill="#3a2f7e" opacity="1.00"></rect><rect x="936" y="198" width="17" height="17" fill="#3a2f7e" opacity="0.35"></rect><rect x="1026" y="198" width="17" height="17" fill="#3a2f7e" opacity="0.43"></rect><rect x="1116" y="198" width="17" height="17" fill="#3a2f7e" opacity="0.52"></rect><rect x="1152" y="198" width="17" height="17" fill="#3a2f7e" opacity="0.55"></rect><rect x="1170" y="198" width="17" height="17" fill="#3a2f7e" opacity="0.57"></rect><rect x="1242" y="198" width="17" height="17" fill="#bdf7ff" opacity="0.66"></rect><rect x="1314" y="198" width="17" height="17" fill="#3a2f7e" opacity="0.75"></rect><rect x="1350" y="198" width="17" height="17" fill="#00e6ff" opacity="0.80"></rect><rect x="1386" y="198" width="17" height="17" fill="#7b5bff" opacity="0.85"></rect><rect x="1404" y="198" width="17" height="17" fill="#7b5bff" opacity="0.87"></rect><rect x="1422" y="198" width="17" height="17" fill="#3a2f7e" opacity="0.90"></rect><rect x="1440" y="198" width="17" height="17" fill="#00e6ff" opacity="0.92"></rect><rect x="1458" y="198" width="17" height="17" fill="#3a2f7e" opacity="0.95"></rect><rect x="1494" y="198" width="17" height="17" fill="#7b5bff" opacity="1.00"></rect><rect x="1188" y="216" width="17" height="17" fill="#7b5bff" opacity="0.59"></rect><rect x="1224" y="216" width="17" height="17" fill="#3a2f7e" opacity="0.64"></rect><rect x="1260" y="216" width="17" height="17" fill="#3a2f7e" opacity="0.68"></rect><rect x="1296" y="216" width="17" height="17" fill="#7b5bff" opacity="0.73"></rect><rect x="1314" y="216" width="17" height="17" fill="#00e6ff" opacity="0.75"></rect><rect x="1332" y="216" width="17" height="17" fill="#00e6ff" opacity="0.77"></rect><rect x="1368" y="216" width="17" height="17" fill="#7b5bff" opacity="0.82"></rect><rect x="1386" y="216" width="17" height="17" fill="#3a2f7e" opacity="0.85"></rect><rect x="1404" y="216" width="17" height="17" fill="#7b5bff" opacity="0.87"></rect><rect x="1422" y="216" width="17" height="17" fill="#ff45e0" opacity="0.90"></rect><rect x="1440" y="216" width="17" height="17" fill="#3a2f7e" opacity="0.92"></rect><rect x="1458" y="216" width="17" height="17" fill="#00e6ff" opacity="0.95"></rect><rect x="1476" y="216" width="17" height="17" fill="#3a2f7e" opacity="0.97"></rect><rect x="1494" y="216" width="17" height="17" fill="#ff45e0" opacity="1.00"></rect><rect x="882" y="234" width="17" height="17" fill="#3a2f7e" opacity="0.31"></rect><rect x="1098" y="234" width="17" height="17" fill="#00e6ff" opacity="0.50"></rect><rect x="1188" y="234" width="17" height="17" fill="#7b5bff" opacity="0.59"></rect><rect x="1242" y="234" width="17" height="17" fill="#3a2f7e" opacity="0.66"></rect><rect x="1422" y="234" width="17" height="17" fill="#00e6ff" opacity="0.90"></rect><rect x="1440" y="234" width="17" height="17" fill="#ff45e0" opacity="0.92"></rect><rect x="1458" y="234" width="17" height="17" fill="#7b5bff" opacity="0.95"></rect><rect x="1476" y="234" width="17" height="17" fill="#7b5bff" opacity="0.97"></rect><rect x="1494" y="234" width="17" height="17" fill="#3a2f7e" opacity="1.00"></rect><rect x="846" y="252" width="17" height="17" fill="#7b5bff" opacity="0.29"></rect><rect x="1080" y="252" width="17" height="17" fill="#3a2f7e" opacity="0.48"></rect><rect x="1098" y="252" width="17" height="17" fill="#00e6ff" opacity="0.50"></rect><rect x="1116" y="252" width="17" height="17" fill="#3a2f7e" opacity="0.52"></rect><rect x="1188" y="252" width="17" height="17" fill="#3a2f7e" opacity="0.59"></rect><rect x="1242" y="252" width="17" height="17" fill="#3a2f7e" opacity="0.66"></rect><rect x="1260" y="252" width="17" height="17" fill="#3a2f7e" opacity="0.68"></rect><rect x="1296" y="252" width="17" height="17" fill="#ff45e0" opacity="0.73"></rect><rect x="1314" y="252" width="17" height="17" fill="#bdf7ff" opacity="0.75"></rect><rect x="1332" y="252" width="17" height="17" fill="#3a2f7e" opacity="0.77"></rect><rect x="1368" y="252" width="17" height="17" fill="#00e6ff" opacity="0.82"></rect><rect x="1386" y="252" width="17" height="17" fill="#bdf7ff" opacity="0.85"></rect><rect x="1404" y="252" width="17" height="17" fill="#ff45e0" opacity="0.87"></rect><rect x="1422" y="252" width="17" height="17" fill="#3a2f7e" opacity="0.90"></rect><rect x="1440" y="252" width="17" height="17" fill="#00e6ff" opacity="0.92"></rect><rect x="1458" y="252" width="17" height="17" fill="#7b5bff" opacity="0.95"></rect><rect x="1476" y="252" width="17" height="17" fill="#7b5bff" opacity="0.97"></rect><rect x="1494" y="252" width="17" height="17" fill="#7b5bff" opacity="1.00"></rect><rect x="846" y="270" width="17" height="17" fill="#bdf7ff" opacity="0.29"></rect><rect x="1152" y="270" width="17" height="17" fill="#bdf7ff" opacity="0.55"></rect><rect x="1188" y="270" width="17" height="17" fill="#00e6ff" opacity="0.59"></rect><rect x="1224" y="270" width="17" height="17" fill="#3a2f7e" opacity="0.64"></rect><rect x="1242" y="270" width="17" height="17" fill="#3a2f7e" opacity="0.66"></rect><rect x="1278" y="270" width="17" height="17" fill="#3a2f7e" opacity="0.70"></rect><rect x="1314" y="270" width="17" height="17" fill="#ff45e0" opacity="0.75"></rect><rect x="1332" y="270" width="17" height="17" fill="#3a2f7e" opacity="0.77"></rect><rect x="1350" y="270" width="17" height="17" fill="#7b5bff" opacity="0.80"></rect><rect x="1368" y="270" width="17" height="17" fill="#7b5bff" opacity="0.82"></rect><rect x="1386" y="270" width="17" height="17" fill="#3a2f7e" opacity="0.85"></rect><rect x="1404" y="270" width="17" height="17" fill="#3a2f7e" opacity="0.87"></rect><rect x="1422" y="270" width="17" height="17" fill="#7b5bff" opacity="0.90"></rect><rect x="1440" y="270" width="17" height="17" fill="#7b5bff" opacity="0.92"></rect><rect x="1458" y="270" width="17" height="17" fill="#3a2f7e" opacity="0.95"></rect><rect x="1476" y="270" width="17" height="17" fill="#7b5bff" opacity="0.97"></rect><rect x="1494" y="270" width="17" height="17" fill="#7b5bff" opacity="1.00"></rect><rect x="1098" y="288" width="17" height="17" fill="#bdf7ff" opacity="0.50"></rect><rect x="1116" y="288" width="17" height="17" fill="#ff45e0" opacity="0.52"></rect><rect x="1134" y="288" width="17" height="17" fill="#7b5bff" opacity="0.53"></rect><rect x="1206" y="288" width="17" height="17" fill="#7b5bff" opacity="0.62"></rect><rect x="1224" y="288" width="17" height="17" fill="#3a2f7e" opacity="0.64"></rect><rect x="1278" y="288" width="17" height="17" fill="#3a2f7e" opacity="0.70"></rect><rect x="1296" y="288" width="17" height="17" fill="#00e6ff" opacity="0.73"></rect><rect x="1314" y="288" width="17" height="17" fill="#ff45e0" opacity="0.75"></rect><rect x="1332" y="288" width="17" height="17" fill="#3a2f7e" opacity="0.77"></rect><rect x="1350" y="288" width="17" height="17" fill="#7b5bff" opacity="0.80"></rect><rect x="1386" y="288" width="17" height="17" fill="#ff45e0" opacity="0.85"></rect><rect x="1404" y="288" width="17" height="17" fill="#7b5bff" opacity="0.87"></rect><rect x="1422" y="288" width="17" height="17" fill="#ff45e0" opacity="0.90"></rect><rect x="1440" y="288" width="17" height="17" fill="#3a2f7e" opacity="0.92"></rect><rect x="1458" y="288" width="17" height="17" fill="#bdf7ff" opacity="0.95"></rect><rect x="1476" y="288" width="17" height="17" fill="#7b5bff" opacity="0.97"></rect><rect x="1494" y="288" width="17" height="17" fill="#ff45e0" opacity="1.00"></rect><rect x="1116" y="306" width="17" height="17" fill="#3a2f7e" opacity="0.52"></rect><rect x="1134" y="306" width="17" height="17" fill="#3a2f7e" opacity="0.53"></rect><rect x="1206" y="306" width="17" height="17" fill="#00e6ff" opacity="0.62"></rect><rect x="1278" y="306" width="17" height="17" fill="#00e6ff" opacity="0.70"></rect><rect x="1296" y="306" width="17" height="17" fill="#7b5bff" opacity="0.73"></rect><rect x="1368" y="306" width="17" height="17" fill="#3a2f7e" opacity="0.82"></rect><rect x="1386" y="306" width="17" height="17" fill="#bdf7ff" opacity="0.85"></rect><rect x="1404" y="306" width="17" height="17" fill="#3a2f7e" opacity="0.87"></rect><rect x="1422" y="306" width="17" height="17" fill="#3a2f7e" opacity="0.90"></rect><rect x="1440" y="306" width="17" height="17" fill="#7b5bff" opacity="0.92"></rect><rect x="1458" y="306" width="17" height="17" fill="#7b5bff" opacity="0.95"></rect><rect x="1476" y="306" width="17" height="17" fill="#7b5bff" opacity="0.97"></rect><rect x="1494" y="306" width="17" height="17" fill="#7b5bff" opacity="1.00"></rect><rect x="954" y="324" width="17" height="17" fill="#3a2f7e" opacity="0.36"></rect><rect x="1098" y="324" width="17" height="17" fill="#3a2f7e" opacity="0.50"></rect><rect x="1170" y="324" width="17" height="17" fill="#3a2f7e" opacity="0.57"></rect><rect x="1188" y="324" width="17" height="17" fill="#bdf7ff" opacity="0.59"></rect><rect x="1242" y="324" width="17" height="17" fill="#3a2f7e" opacity="0.66"></rect><rect x="1278" y="324" width="17" height="17" fill="#7b5bff" opacity="0.70"></rect><rect x="1296" y="324" width="17" height="17" fill="#00e6ff" opacity="0.73"></rect><rect x="1314" y="324" width="17" height="17" fill="#7b5bff" opacity="0.75"></rect><rect x="1332" y="324" width="17" height="17" fill="#3a2f7e" opacity="0.77"></rect><rect x="1350" y="324" width="17" height="17" fill="#7b5bff" opacity="0.80"></rect><rect x="1368" y="324" width="17" height="17" fill="#3a2f7e" opacity="0.82"></rect><rect x="1386" y="324" width="17" height="17" fill="#ff45e0" opacity="0.85"></rect><rect x="1404" y="324" width="17" height="17" fill="#3a2f7e" opacity="0.87"></rect><rect x="1422" y="324" width="17" height="17" fill="#3a2f7e" opacity="0.90"></rect><rect x="1440" y="324" width="17" height="17" fill="#00e6ff" opacity="0.92"></rect><rect x="1458" y="324" width="17" height="17" fill="#3a2f7e" opacity="0.95"></rect><rect x="1476" y="324" width="17" height="17" fill="#3a2f7e" opacity="0.97"></rect><rect x="1494" y="324" width="17" height="17" fill="#3a2f7e" opacity="1.00"></rect><rect x="990" y="342" width="17" height="17" fill="#00e6ff" opacity="0.39"></rect><rect x="1152" y="342" width="17" height="17" fill="#7b5bff" opacity="0.55"></rect><rect x="1170" y="342" width="17" height="17" fill="#7b5bff" opacity="0.57"></rect><rect x="1206" y="342" width="17" height="17" fill="#7b5bff" opacity="0.62"></rect><rect x="1224" y="342" width="17" height="17" fill="#bdf7ff" opacity="0.64"></rect><rect x="1242" y="342" width="17" height="17" fill="#3a2f7e" opacity="0.66"></rect><rect x="1296" y="342" width="17" height="17" fill="#7b5bff" opacity="0.73"></rect><rect x="1332" y="342" width="17" height="17" fill="#3a2f7e" opacity="0.77"></rect><rect x="1350" y="342" width="17" height="17" fill="#3a2f7e" opacity="0.80"></rect><rect x="1368" y="342" width="17" height="17" fill="#7b5bff" opacity="0.82"></rect><rect x="1386" y="342" width="17" height="17" fill="#bdf7ff" opacity="0.85"></rect><rect x="1404" y="342" width="17" height="17" fill="#7b5bff" opacity="0.87"></rect><rect x="1422" y="342" width="17" height="17" fill="#bdf7ff" opacity="0.90"></rect><rect x="1440" y="342" width="17" height="17" fill="#00e6ff" opacity="0.92"></rect><rect x="1458" y="342" width="17" height="17" fill="#3a2f7e" opacity="0.95"></rect><rect x="1476" y="342" width="17" height="17" fill="#7b5bff" opacity="0.97"></rect><rect x="1494" y="342" width="17" height="17" fill="#bdf7ff" opacity="1.00"></rect><rect x="1188" y="360" width="17" height="17" fill="#00e6ff" opacity="0.59"></rect><rect x="1278" y="360" width="17" height="17" fill="#3a2f7e" opacity="0.70"></rect><rect x="1350" y="360" width="17" height="17" fill="#00e6ff" opacity="0.80"></rect><rect x="1386" y="360" width="17" height="17" fill="#ff45e0" opacity="0.85"></rect><rect x="1404" y="360" width="17" height="17" fill="#7b5bff" opacity="0.87"></rect><rect x="1422" y="360" width="17" height="17" fill="#3a2f7e" opacity="0.90"></rect><rect x="1458" y="360" width="17" height="17" fill="#ff45e0" opacity="0.95"></rect><rect x="1476" y="360" width="17" height="17" fill="#3a2f7e" opacity="0.97"></rect><rect x="1494" y="360" width="17" height="17" fill="#7b5bff" opacity="1.00"></rect><rect x="972" y="378" width="17" height="17" fill="#3a2f7e" opacity="0.38"></rect><rect x="1026" y="378" width="17" height="17" fill="#ff45e0" opacity="0.43"></rect><rect x="1152" y="378" width="17" height="17" fill="#7b5bff" opacity="0.55"></rect><rect x="1188" y="378" width="17" height="17" fill="#3a2f7e" opacity="0.59"></rect><rect x="1260" y="378" width="17" height="17" fill="#7b5bff" opacity="0.68"></rect><rect x="1278" y="378" width="17" height="17" fill="#3a2f7e" opacity="0.70"></rect><rect x="1296" y="378" width="17" height="17" fill="#3a2f7e" opacity="0.73"></rect><rect x="1368" y="378" width="17" height="17" fill="#3a2f7e" opacity="0.82"></rect><rect x="1404" y="378" width="17" height="17" fill="#3a2f7e" opacity="0.87"></rect><rect x="1440" y="378" width="17" height="17" fill="#3a2f7e" opacity="0.92"></rect><rect x="1458" y="378" width="17" height="17" fill="#00e6ff" opacity="0.95"></rect><rect x="1476" y="378" width="17" height="17" fill="#7b5bff" opacity="0.97"></rect><rect x="1494" y="378" width="17" height="17" fill="#ff45e0" opacity="1.00"></rect><rect x="954" y="396" width="17" height="17" fill="#3a2f7e" opacity="0.36"></rect><rect x="1188" y="396" width="17" height="17" fill="#3a2f7e" opacity="0.59"></rect><rect x="1260" y="396" width="17" height="17" fill="#7b5bff" opacity="0.68"></rect><rect x="1278" y="396" width="17" height="17" fill="#ff45e0" opacity="0.70"></rect><rect x="1296" y="396" width="17" height="17" fill="#7b5bff" opacity="0.73"></rect><rect x="1368" y="396" width="17" height="17" fill="#ff45e0" opacity="0.82"></rect><rect x="1386" y="396" width="17" height="17" fill="#3a2f7e" opacity="0.85"></rect><rect x="1404" y="396" width="17" height="17" fill="#3a2f7e" opacity="0.87"></rect><rect x="1422" y="396" width="17" height="17" fill="#3a2f7e" opacity="0.90"></rect><rect x="1440" y="396" width="17" height="17" fill="#7b5bff" opacity="0.92"></rect><rect x="1476" y="396" width="17" height="17" fill="#3a2f7e" opacity="0.97"></rect><rect x="1494" y="396" width="17" height="17" fill="#ff45e0" opacity="1.00"></rect><rect x="990" y="414" width="17" height="17" fill="#7b5bff" opacity="0.39"></rect><rect x="1080" y="414" width="17" height="17" fill="#3a2f7e" opacity="0.48"></rect><rect x="1134" y="414" width="17" height="17" fill="#3a2f7e" opacity="0.53"></rect><rect x="1152" y="414" width="17" height="17" fill="#3a2f7e" opacity="0.55"></rect><rect x="1188" y="414" width="17" height="17" fill="#3a2f7e" opacity="0.59"></rect><rect x="1224" y="414" width="17" height="17" fill="#3a2f7e" opacity="0.64"></rect><rect x="1242" y="414" width="17" height="17" fill="#7b5bff" opacity="0.66"></rect><rect x="1314" y="414" width="17" height="17" fill="#7b5bff" opacity="0.75"></rect><rect x="1332" y="414" width="17" height="17" fill="#00e6ff" opacity="0.77"></rect><rect x="1350" y="414" width="17" height="17" fill="#ff45e0" opacity="0.80"></rect><rect x="1368" y="414" width="17" height="17" fill="#3a2f7e" opacity="0.82"></rect><rect x="1404" y="414" width="17" height="17" fill="#7b5bff" opacity="0.87"></rect><rect x="1422" y="414" width="17" height="17" fill="#00e6ff" opacity="0.90"></rect><rect x="1440" y="414" width="17" height="17" fill="#3a2f7e" opacity="0.92"></rect><rect x="1458" y="414" width="17" height="17" fill="#7b5bff" opacity="0.95"></rect><rect x="1476" y="414" width="17" height="17" fill="#7b5bff" opacity="0.97"></rect><rect x="1494" y="414" width="17" height="17" fill="#7b5bff" opacity="1.00"></rect><rect x="1080" y="432" width="17" height="17" fill="#3a2f7e" opacity="0.48"></rect><rect x="1134" y="432" width="17" height="17" fill="#bdf7ff" opacity="0.53"></rect><rect x="1260" y="432" width="17" height="17" fill="#7b5bff" opacity="0.68"></rect><rect x="1314" y="432" width="17" height="17" fill="#3a2f7e" opacity="0.75"></rect><rect x="1332" y="432" width="17" height="17" fill="#3a2f7e" opacity="0.77"></rect><rect x="1350" y="432" width="17" height="17" fill="#ff45e0" opacity="0.80"></rect><rect x="1404" y="432" width="17" height="17" fill="#3a2f7e" opacity="0.87"></rect><rect x="1422" y="432" width="17" height="17" fill="#00e6ff" opacity="0.90"></rect><rect x="1440" y="432" width="17" height="17" fill="#3a2f7e" opacity="0.92"></rect><rect x="1458" y="432" width="17" height="17" fill="#00e6ff" opacity="0.95"></rect><rect x="1476" y="432" width="17" height="17" fill="#00e6ff" opacity="0.97"></rect><rect x="1494" y="432" width="17" height="17" fill="#7b5bff" opacity="1.00"></rect><rect x="900" y="450" width="17" height="17" fill="#3a2f7e" opacity="0.32"></rect><rect x="1188" y="450" width="17" height="17" fill="#3a2f7e" opacity="0.59"></rect><rect x="1224" y="450" width="17" height="17" fill="#00e6ff" opacity="0.64"></rect><rect x="1260" y="450" width="17" height="17" fill="#3a2f7e" opacity="0.68"></rect><rect x="1278" y="450" width="17" height="17" fill="#00e6ff" opacity="0.70"></rect><rect x="1314" y="450" width="17" height="17" fill="#00e6ff" opacity="0.75"></rect><rect x="1332" y="450" width="17" height="17" fill="#7b5bff" opacity="0.77"></rect><rect x="1350" y="450" width="17" height="17" fill="#3a2f7e" opacity="0.80"></rect><rect x="1368" y="450" width="17" height="17" fill="#7b5bff" opacity="0.82"></rect><rect x="1404" y="450" width="17" height="17" fill="#00e6ff" opacity="0.87"></rect><rect x="1422" y="450" width="17" height="17" fill="#3a2f7e" opacity="0.90"></rect><rect x="1440" y="450" width="17" height="17" fill="#bdf7ff" opacity="0.92"></rect><rect x="1458" y="450" width="17" height="17" fill="#7b5bff" opacity="0.95"></rect><rect x="1476" y="450" width="17" height="17" fill="#3a2f7e" opacity="0.97"></rect><rect x="1494" y="450" width="17" height="17" fill="#3a2f7e" opacity="1.00"></rect><rect x="1152" y="468" width="17" height="17" fill="#3a2f7e" opacity="0.55"></rect><rect x="1188" y="468" width="17" height="17" fill="#7b5bff" opacity="0.59"></rect><rect x="1224" y="468" width="17" height="17" fill="#7b5bff" opacity="0.64"></rect><rect x="1242" y="468" width="17" height="17" fill="#7b5bff" opacity="0.66"></rect><rect x="1260" y="468" width="17" height="17" fill="#00e6ff" opacity="0.68"></rect><rect x="1278" y="468" width="17" height="17" fill="#7b5bff" opacity="0.70"></rect><rect x="1314" y="468" width="17" height="17" fill="#00e6ff" opacity="0.75"></rect><rect x="1332" y="468" width="17" height="17" fill="#3a2f7e" opacity="0.77"></rect><rect x="1404" y="468" width="17" height="17" fill="#3a2f7e" opacity="0.87"></rect><rect x="1440" y="468" width="17" height="17" fill="#3a2f7e" opacity="0.92"></rect><rect x="1458" y="468" width="17" height="17" fill="#3a2f7e" opacity="0.95"></rect><rect x="1476" y="468" width="17" height="17" fill="#7b5bff" opacity="0.97"></rect><rect x="1494" y="468" width="17" height="17" fill="#3a2f7e" opacity="1.00"></rect><rect x="954" y="486" width="17" height="17" fill="#3a2f7e" opacity="0.36"></rect><rect x="1116" y="486" width="17" height="17" fill="#3a2f7e" opacity="0.52"></rect><rect x="1134" y="486" width="17" height="17" fill="#ff45e0" opacity="0.53"></rect><rect x="1170" y="486" width="17" height="17" fill="#7b5bff" opacity="0.57"></rect><rect x="1278" y="486" width="17" height="17" fill="#3a2f7e" opacity="0.70"></rect><rect x="1296" y="486" width="17" height="17" fill="#7b5bff" opacity="0.73"></rect><rect x="1332" y="486" width="17" height="17" fill="#3a2f7e" opacity="0.77"></rect><rect x="1368" y="486" width="17" height="17" fill="#bdf7ff" opacity="0.82"></rect><rect x="1386" y="486" width="17" height="17" fill="#3a2f7e" opacity="0.85"></rect><rect x="1404" y="486" width="17" height="17" fill="#3a2f7e" opacity="0.87"></rect><rect x="1422" y="486" width="17" height="17" fill="#3a2f7e" opacity="0.90"></rect><rect x="1440" y="486" width="17" height="17" fill="#3a2f7e" opacity="0.92"></rect><rect x="1458" y="486" width="17" height="17" fill="#7b5bff" opacity="0.95"></rect><rect x="1476" y="486" width="17" height="17" fill="#3a2f7e" opacity="0.97"></rect><rect x="1494" y="486" width="17" height="17" fill="#7b5bff" opacity="1.00"></rect><text x="510.00000000000006" y="244" font-family="Arial, Helvetica, sans-serif" font-weight="900" font-size="86" letter-spacing="14" fill="#f3f1ff" text-anchor="middle">MINNER</text><text x="510.00000000000006" y="290" font-family="Arial, Helvetica, sans-serif" font-weight="700" font-size="20" letter-spacing="6" fill="#9b97c9" text-anchor="middle">BUILD IN PUBLIC · WEB2 × WEB3</text><rect x="444.00000000000006" y="308" width="14" height="14" fill="#00e6ff"></rect><rect x="466.00000000000006" y="308" width="14" height="14" fill="#7b5bff"></rect><rect x="488.00000000000006" y="308" width="14" height="14" fill="#ff45e0"></rect><rect x="510.00000000000006" y="308" width="14" height="14" fill="#00e6ff"></rect><rect x="532" y="308" width="14" height="14" fill="#7b5bff"></rect><rect x="554" y="308" width="14" height="14" fill="#ff45e0"></rect></svg>